<svg width="264" height="265" viewBox="0 0 264 265" fill="none" xmlns="http://www.w3.org/2000/svg">
<path d="M100 69.1781L131.634 52L163 69.0681C160.751 70.4357 158.375 71.6194 156.053 72.8637C150.531 75.8224 145.005 78.9251 139.513 81.9444C136.882 83.3914 134.658 84.8962 131.517 84.9997C127.998 85.0234 126.316 83.426 123.404 81.8813C116.639 78.2928 109.771 74.5184 103.101 70.7898C102.092 70.2256 101.083 69.5988 100 69.1781Z" fill="#A366F0"/>
<path d="M76.06 67.0251C79.3838 68.6857 82.5762 70.6123 85.8447 72.3754C99.7738 79.888 113.574 87.6717 127.289 95.5579C132.516 98.5634 134.143 96.502 138.825 93.7974C141.412 92.3039 144.014 90.8283 146.624 89.3764C158.286 82.8909 169.785 76.1301 181.594 69.904C183.355 68.9753 185.034 67.8887 186.813 67L186.928 67.0405C186.994 67.3998 186.908 67.86 186.906 68.2321C186.879 72.4389 186.902 76.6468 186.904 80.8541C186.905 82.9672 186.86 85.0834 187 87.1935C183.941 88.6153 181.1 90.4152 178.162 92.0584C167.97 97.7582 157.678 103.309 147.584 109.179C141.526 112.703 141.245 114.429 141.241 120.797C141.236 129.592 141.228 138.388 141.246 147.184C138.666 148.197 136.585 150.175 133.79 150.763C129.07 151.755 125.469 149.463 121.667 146.998C121.832 145.724 121.731 144.337 121.732 143.051C121.739 135.263 121.744 127.475 121.733 119.687C121.726 114.393 120.957 112.432 116.016 109.584C110.055 106.149 103.986 102.9 98.0258 99.468L76 87.1561L76.06 67.0251Z" fill="#A366F0"/>
<path d="M107.936 140C106.655 139.438 105.394 138.684 104.166 138.004C96.8942 133.974 89.6976 129.803 82.4222 125.78C77.3961 123.001 76.0419 121.398 76.0459 115.725C76.0489 111.153 75.9255 106.568 76.0715 102C77.0529 102.31 80.4608 104.543 81.6229 105.196C89.4492 109.598 97.3132 114.138 105.076 118.671C106.05 119.24 107.068 119.765 108 120.4L107.936 140Z" fill="#A366F0"/>
<path d="M155 120.263L186.916 102L187 102.067C186.843 103.524 186.917 105.033 186.917 106.499C186.916 108.972 186.918 111.445 186.92 113.919C186.926 121.118 186.128 122.705 180.259 125.936C171.821 130.581 163.459 135.175 155.102 140L155 120.263Z" fill="#A366F0"/>
<path d="M33.125 188.875C33.125 188.021 33.2812 187.219 33.5938 186.469C33.9271 185.719 34.3646 185.073 34.9062 184.531C35.4688 183.969 36.125 183.531 36.875 183.219C37.625 182.885 38.4167 182.719 39.25 182.719H56.4062V169.906H62.5625V216H56.4062V210.375C56.3438 211.146 56.1354 211.875 55.7812 212.562C55.4271 213.25 54.9688 213.854 54.4062 214.375C53.8646 214.875 53.2396 215.271 52.5312 215.562C51.8229 215.854 51.0729 216 50.2812 216H39.25C38.4167 216 37.625 215.844 36.875 215.531C36.125 215.198 35.4688 214.76 34.9062 214.219C34.3646 213.656 33.9271 213 33.5938 212.25C33.2812 211.5 33.125 210.698 33.125 209.844V188.875ZM39.25 209.844H56.4062V188.875H39.25V209.844ZM99.1875 188.875V216H93.0312V188.875H78.9375V216H72.8125V182.719H78.9375V188.594C78.9792 187.781 79.1667 187.021 79.5 186.312C79.8333 185.583 80.2708 184.958 80.8125 184.438C81.375 183.896 82.0208 183.479 82.75 183.188C83.4792 182.875 84.2604 182.719 85.0938 182.719H93.0312C93.8438 182.719 94.6146 182.875 95.3438 183.188C96.0729 183.479 96.7188 183.896 97.2812 184.438C97.8438 184.958 98.2917 185.583 98.625 186.312C98.9792 187.021 99.1667 187.781 99.1875 188.594C99.2292 187.781 99.4062 187.021 99.7188 186.312C100.052 185.583 100.49 184.958 101.031 184.438C101.594 183.896 102.24 183.479 102.969 183.188C103.698 182.875 104.479 182.719 105.312 182.719H113.25C114.104 182.719 114.906 182.885 115.656 183.219C116.406 183.531 117.052 183.969 117.594 184.531C118.156 185.073 118.594 185.719 118.906 186.469C119.24 187.219 119.406 188.021 119.406 188.875V216H113.25V188.875H99.1875ZM157.844 202.5H135.812V209.844H157.844V216H135.812C134.979 216 134.188 215.844 133.438 215.531C132.688 215.198 132.031 214.76 131.469 214.219C130.927 213.656 130.49 213 130.156 212.25C129.844 211.5 129.688 210.698 129.688 209.844V188.875C129.688 188.021 129.844 187.219 130.156 186.469C130.49 185.719 130.927 185.073 131.469 184.531C132.031 183.969 132.688 183.531 133.438 183.219C134.188 182.885 134.979 182.719 135.812 182.719H151.688C152.542 182.719 153.344 182.885 154.094 183.219C154.844 183.531 155.49 183.969 156.031 184.531C156.594 185.073 157.031 185.719 157.344 186.469C157.677 187.219 157.844 188.021 157.844 188.875V202.5ZM135.812 188.875V196.344H151.688V188.875H135.812ZM196.281 202.5H174.25V209.844H196.281V216H174.25C173.417 216 172.625 215.844 171.875 215.531C171.125 215.198 170.469 214.76 169.906 214.219C169.365 213.656 168.927 213 168.594 212.25C168.281 211.5 168.125 210.698 168.125 209.844V188.875C168.125 188.021 168.281 187.219 168.594 186.469C168.927 185.719 169.365 185.073 169.906 184.531C170.469 183.969 171.125 183.531 171.875 183.219C172.625 182.885 173.417 182.719 174.25 182.719H190.125C190.979 182.719 191.781 182.885 192.531 183.219C193.281 183.531 193.927 183.969 194.469 184.531C195.031 185.073 195.469 185.719 195.781 186.469C196.115 187.219 196.281 188.021 196.281 188.875V202.5ZM174.25 188.875V196.344H190.125V188.875H174.25ZM204.625 182.719H212.75V172.469H218.906V182.719H229.844V188.875H218.906V209.844H229.844V216H218.906C218.073 216 217.281 215.844 216.531 215.531C215.781 215.198 215.125 214.76 214.562 214.219C214 213.656 213.552 213 213.219 212.25C212.906 211.5 212.75 210.698 212.75 209.844V188.875H204.625V182.719Z" fill="#A366F0"/>
</svg>
