<svg width="137" height="43" viewBox="0 0 137 43" fill="none" xmlns="http://www.w3.org/2000/svg">
<path d="M10 7.80822L24.0594 0L38 7.75823C37.0005 8.37988 35.9446 8.91791 34.9124 9.48351C32.4583 10.8284 30.0023 12.2387 27.5615 13.6111C26.3919 14.2688 25.4036 14.9528 24.0074 14.9999C22.4435 15.0106 21.6958 14.2845 20.4016 13.5824C17.3951 11.9513 14.3427 10.2356 11.3783 8.54084C10.9299 8.28438 10.4813 7.99945 10 7.80822Z" fill="#A366F0"/>
<path d="M0.0259333 6.01106C1.46325 6.74251 2.84378 7.59112 4.25718 8.36772C10.2805 11.6768 16.248 15.1054 22.179 18.5791C24.4393 19.9029 25.1429 18.9949 27.1677 17.8036C28.2862 17.1458 29.4115 16.4958 30.5403 15.8563C35.583 12.9995 40.5559 10.0216 45.6624 7.27913C46.4238 6.87006 47.15 6.39146 47.9191 6L47.9689 6.01784C47.9975 6.17609 47.9604 6.37882 47.9593 6.54272C47.9475 8.39572 47.9577 10.2492 47.9586 12.1024C47.9591 13.0332 47.9396 13.9653 48 14.8948C46.6774 15.521 45.4489 16.3139 44.1783 17.0376C39.7709 19.5483 35.3204 21.9934 30.9554 24.579C28.3354 26.1311 28.214 26.8914 28.2125 29.6962C28.2102 33.5704 28.2069 37.4448 28.2145 41.319C27.0989 41.7655 26.1988 42.6367 24.9902 42.8956C22.949 43.3327 21.3921 42.3231 19.748 41.2372C19.8193 40.676 19.7757 40.0651 19.7761 39.4987C19.779 36.0681 19.7813 32.6378 19.7764 29.2072C19.7732 26.8756 19.441 26.0119 17.3041 24.7573C14.7266 23.2441 12.1022 21.813 9.52466 20.3014L0 14.8783L0.0259333 6.01106Z" fill="#A366F0"/>
<path d="M13.9721 38C13.4115 37.7487 12.8598 37.4111 12.3227 37.1069C9.14122 35.3044 5.99268 33.438 2.80969 31.6384C0.610791 30.3953 0.0183167 29.6778 0.0200728 27.14C0.0213899 25.0948 -0.0326123 23.0435 0.0312671 21C0.460642 21.1389 1.9516 22.1375 2.46 22.4298C5.88403 24.3992 9.32451 26.4302 12.7209 28.4583C13.1467 28.7125 13.5924 28.9476 14 29.2316L13.9721 38Z" fill="#A366F0"/>
<path d="M34 29.1703L47.9634 21L48 21.0299C47.9312 21.6817 47.9638 22.357 47.9636 23.0126C47.9634 24.1191 47.9643 25.2256 47.9652 26.3323C47.9678 29.5529 47.6186 30.2629 45.0509 31.7082C41.3591 33.7863 37.7007 35.8413 34.0447 38L34 29.1703Z" fill="#A366F0"/>
<path d="M62.9219 20.8281C62.9219 20.5078 62.9805 20.207 63.0977 19.9258C63.2227 19.6445 63.3867 19.4023 63.5898 19.1992C63.8008 18.9883 64.0469 18.8242 64.3281 18.707C64.6094 18.582 64.9062 18.5195 65.2188 18.5195H71.6523V13.7148H73.9609V31H71.6523V28.8906C71.6289 29.1797 71.5508 29.4531 71.418 29.7109C71.2852 29.9688 71.1133 30.1953 70.9023 30.3906C70.6992 30.5781 70.4648 30.7266 70.1992 30.8359C69.9336 30.9453 69.6523 31 69.3555 31H65.2188C64.9062 31 64.6094 30.9414 64.3281 30.8242C64.0469 30.6992 63.8008 30.5352 63.5898 30.332C63.3867 30.1211 63.2227 29.875 63.0977 29.5938C62.9805 29.3125 62.9219 29.0117 62.9219 28.6914V20.8281ZM65.2188 28.6914H71.6523V20.8281H65.2188V28.6914ZM87.6953 20.8281V31H85.3867V20.8281H80.1016V31H77.8047V18.5195H80.1016V20.7227C80.1172 20.418 80.1875 20.1328 80.3125 19.8672C80.4375 19.5938 80.6016 19.3594 80.8047 19.1641C81.0156 18.9609 81.2578 18.8047 81.5312 18.6953C81.8047 18.5781 82.0977 18.5195 82.4102 18.5195H85.3867C85.6914 18.5195 85.9805 18.5781 86.2539 18.6953C86.5273 18.8047 86.7695 18.9609 86.9805 19.1641C87.1914 19.3594 87.3594 19.5938 87.4844 19.8672C87.6172 20.1328 87.6875 20.418 87.6953 20.7227C87.7109 20.418 87.7773 20.1328 87.8945 19.8672C88.0195 19.5938 88.1836 19.3594 88.3867 19.1641C88.5977 18.9609 88.8398 18.8047 89.1133 18.6953C89.3867 18.5781 89.6797 18.5195 89.9922 18.5195H92.9688C93.2891 18.5195 93.5898 18.582 93.8711 18.707C94.1523 18.8242 94.3945 18.9883 94.5977 19.1992C94.8086 19.4023 94.9727 19.6445 95.0898 19.9258C95.2148 20.207 95.2773 20.5078 95.2773 20.8281V31H92.9688V20.8281H87.6953ZM109.691 25.9375H101.43V28.6914H109.691V31H101.43C101.117 31 100.82 30.9414 100.539 30.8242C100.258 30.6992 100.012 30.5352 99.8008 30.332C99.5977 30.1211 99.4336 29.875 99.3086 29.5938C99.1914 29.3125 99.1328 29.0117 99.1328 28.6914V20.8281C99.1328 20.5078 99.1914 20.207 99.3086 19.9258C99.4336 19.6445 99.5977 19.4023 99.8008 19.1992C100.012 18.9883 100.258 18.8242 100.539 18.707C100.82 18.582 101.117 18.5195 101.43 18.5195H107.383C107.703 18.5195 108.004 18.582 108.285 18.707C108.566 18.8242 108.809 18.9883 109.012 19.1992C109.223 19.4023 109.387 19.6445 109.504 19.9258C109.629 20.207 109.691 20.5078 109.691 20.8281V25.9375ZM101.43 20.8281V23.6289H107.383V20.8281H101.43ZM124.105 25.9375H115.844V28.6914H124.105V31H115.844C115.531 31 115.234 30.9414 114.953 30.8242C114.672 30.6992 114.426 30.5352 114.215 30.332C114.012 30.1211 113.848 29.875 113.723 29.5938C113.605 29.3125 113.547 29.0117 113.547 28.6914V20.8281C113.547 20.5078 113.605 20.207 113.723 19.9258C113.848 19.6445 114.012 19.4023 114.215 19.1992C114.426 18.9883 114.672 18.8242 114.953 18.707C115.234 18.582 115.531 18.5195 115.844 18.5195H121.797C122.117 18.5195 122.418 18.582 122.699 18.707C122.98 18.8242 123.223 18.9883 123.426 19.1992C123.637 19.4023 123.801 19.6445 123.918 19.9258C124.043 20.207 124.105 20.5078 124.105 20.8281V25.9375ZM115.844 20.8281V23.6289H121.797V20.8281H115.844ZM127.234 18.5195H130.281V14.6758H132.59V18.5195H136.691V20.8281H132.59V28.6914H136.691V31H132.59C132.277 31 131.98 30.9414 131.699 30.8242C131.418 30.6992 131.172 30.5352 130.961 30.332C130.75 30.1211 130.582 29.875 130.457 29.5938C130.34 29.3125 130.281 29.0117 130.281 28.6914V20.8281H127.234V18.5195Z" fill="#A366F0"/>
</svg>
