<svg width="34" height="32" viewBox="0 0 34 32" fill="none" xmlns="http://www.w3.org/2000/svg">
<path d="M31.4184 1L18.9142 10.3775L21.2365 4.84501L31.4184 1Z" fill="#E17726" stroke="#E17726" stroke-width="0.712817" stroke-linecap="round" stroke-linejoin="round"/>
<path d="M2.58154 1L14.972 10.4663L12.7635 4.84501L2.58154 1Z" fill="#E27625" stroke="#E27625" stroke-width="0.712817" stroke-linecap="round" stroke-linejoin="round"/>
<path d="M26.9235 22.7388L23.5971 27.8913L30.7148 29.87L32.749 22.8525L26.9235 22.7388Z" fill="#E27625" stroke="#E27625" stroke-width="0.712817" stroke-linecap="round" stroke-linejoin="round"/>
<path d="M1.26337 22.8525L3.28516 29.87L10.4029 27.8913L7.08885 22.7388L1.26337 22.8525Z" fill="#E27625" stroke="#E27625" stroke-width="0.712817" stroke-linecap="round" stroke-linejoin="round"/>
<path d="M10.0134 14.0327L8.02991 17.0665L15.0858 17.384L14.8471 9.7052L10.0134 14.0327Z" fill="#E27625" stroke="#E27625" stroke-width="0.712817" stroke-linecap="round" stroke-linejoin="round"/>
<path d="M23.9866 14.0324L19.0774 9.61612L18.9142 17.3836L25.9701 17.0661L23.9866 14.0324Z" fill="#E27625" stroke="#E27625" stroke-width="0.712817" stroke-linecap="round" stroke-linejoin="round"/>
<path d="M10.4028 27.8912L14.6591 25.7962L10.9927 22.9037L10.4028 27.8912Z" fill="#E27625" stroke="#E27625" stroke-width="0.712817" stroke-linecap="round" stroke-linejoin="round"/>
<path d="M19.3408 25.7962L23.5971 27.8912L23.0073 22.9037L19.3408 25.7962Z" fill="#E27625" stroke="#E27625" stroke-width="0.712817" stroke-linecap="round" stroke-linejoin="round"/>
<path d="M23.5971 27.8913L19.3408 25.7963L19.6796 28.6013L19.6425 29.7813L23.5971 27.8913Z" fill="#D5BFB2" stroke="#D5BFB2" stroke-width="0.712817" stroke-linecap="round" stroke-linejoin="round"/>
<path d="M10.4028 27.8913L14.3574 29.7813L14.3327 28.6013L14.6591 25.7963L10.4028 27.8913Z" fill="#D5BFB2" stroke="#D5BFB2" stroke-width="0.712817" stroke-linecap="round" stroke-linejoin="round"/>
<path d="M14.4329 21.05L10.8926 19.9975L13.3904 18.8425L14.4329 21.05Z" fill="#233447" stroke="#233447" stroke-width="0.712817" stroke-linecap="round" stroke-linejoin="round"/>
<path d="M19.5671 21.05L20.6096 18.8425L23.1198 19.9975L19.5671 21.05Z" fill="#233447" stroke="#233447" stroke-width="0.712817" stroke-linecap="round" stroke-linejoin="round"/>
<path d="M10.4029 27.8913L11.0175 22.7388L7.08887 22.8525L10.4029 27.8913Z" fill="#CC6228" stroke="#CC6228" stroke-width="0.712817" stroke-linecap="round" stroke-linejoin="round"/>
<path d="M22.9825 22.7388L23.5971 27.8913L26.9235 22.8525L22.9825 22.7388Z" fill="#CC6228" stroke="#CC6228" stroke-width="0.712817" stroke-linecap="round" stroke-linejoin="round"/>
<path d="M25.9701 17.0663L18.9142 17.3838L19.5671 21.05L20.6095 18.8425L23.1198 19.9975L25.9701 17.0663Z" fill="#CC6228" stroke="#CC6228" stroke-width="0.712817" stroke-linecap="round" stroke-linejoin="round"/>
<path d="M10.8926 19.9975L13.3904 18.8425L14.4329 21.05L15.0858 17.3838L8.02991 17.0663L10.8926 19.9975Z" fill="#CC6228" stroke="#CC6228" stroke-width="0.712817" stroke-linecap="round" stroke-linejoin="round"/>
<path d="M8.02991 17.0663L10.9927 22.9038L10.8926 19.9975L8.02991 17.0663Z" fill="#E27525" stroke="#E27525" stroke-width="0.712817" stroke-linecap="round" stroke-linejoin="round"/>
<path d="M23.1198 19.9975L23.0073 22.9038L25.9701 17.0663L23.1198 19.9975Z" fill="#E27525" stroke="#E27525" stroke-width="0.712817" stroke-linecap="round" stroke-linejoin="round"/>
<path d="M15.0858 17.3838L14.4329 21.0501L15.2614 25.3776L15.437 19.6801L15.0858 17.3838Z" fill="#E27525" stroke="#E27525" stroke-width="0.712817" stroke-linecap="round" stroke-linejoin="round"/>
<path d="M18.9143 17.3838L18.5754 19.6676L18.7387 25.3776L19.5672 21.0501L18.9143 17.3838Z" fill="#E27525" stroke="#E27525" stroke-width="0.712817" stroke-linecap="round" stroke-linejoin="round"/>
<path d="M19.5672 21.0501L18.7386 25.3776L19.3409 25.7964L23.0073 22.9039L23.1198 19.9976L19.5672 21.0501Z" fill="#F5841F" stroke="#F5841F" stroke-width="0.712817" stroke-linecap="round" stroke-linejoin="round"/>
<path d="M10.8926 19.9976L10.9927 22.9039L14.6592 25.7964L15.2614 25.3776L14.4329 21.0501L10.8926 19.9976Z" fill="#F5841F" stroke="#F5841F" stroke-width="0.712817" stroke-linecap="round" stroke-linejoin="round"/>
<path d="M19.6425 29.7813L19.6796 28.6013L19.3667 28.3225H14.6331L14.3327 28.6013L14.3574 29.7813L10.4028 27.8913L11.7841 29.0325L14.596 31H19.4038L22.2158 29.0325L23.597 27.8913L19.6425 29.7813Z" fill="#C0AC9D" stroke="#C0AC9D" stroke-width="0.712817" stroke-linecap="round" stroke-linejoin="round"/>
<path d="M19.3409 25.7964L18.7387 25.3776H15.2614L14.6592 25.7964L14.3328 28.6014L14.6333 28.3226H19.3668L19.6797 28.6014L19.3409 25.7964Z" fill="#161616" stroke="#161616" stroke-width="0.712817" stroke-linecap="round" stroke-linejoin="round"/>
<path d="M31.9452 10.9875L33 5.81001L31.4184 1L19.3408 10.0613L23.9866 14.0325L30.5516 15.975L31.9959 14.2613L31.3677 13.805L32.3718 12.8775L31.6064 12.2688L32.6105 11.495L31.9452 10.9875Z" fill="#763E1A" stroke="#763E1A" stroke-width="0.712817" stroke-linecap="round" stroke-linejoin="round"/>
<path d="M1 5.81001L2.06716 10.9875L1.38952 11.495L2.39362 12.2688L1.62818 12.8775L2.63227 13.805L2.0041 14.2613L3.44841 15.975L10.0134 14.0325L14.6592 10.0613L2.58157 1L1 5.81001Z" fill="#763E1A" stroke="#763E1A" stroke-width="0.712817" stroke-linecap="round" stroke-linejoin="round"/>
<path d="M30.5516 15.9751L23.9866 14.0326L25.9701 17.0664L23.0073 22.9039L26.9235 22.8526H32.749L30.5516 15.9751Z" fill="#F5841F" stroke="#F5841F" stroke-width="0.712817" stroke-linecap="round" stroke-linejoin="round"/>
<path d="M10.0133 14.0326L3.44839 15.9751L1.26337 22.8526H7.08885L10.9927 22.9039L8.02988 17.0664L10.0133 14.0326Z" fill="#F5841F" stroke="#F5841F" stroke-width="0.712817" stroke-linecap="round" stroke-linejoin="round"/>
<path d="M18.9143 17.3837L19.3409 10.0612L21.2365 4.84497H12.7635L14.6592 10.0612L15.0858 17.3837L15.2491 19.6925L15.2614 25.3775H18.7387L18.751 19.6925L18.9143 17.3837Z" fill="#F5841F" stroke="#F5841F" stroke-width="0.712817" stroke-linecap="round" stroke-linejoin="round"/>
</svg>
